<svg xmlns="http://www.w3.org/2000/svg" viewBox="0 0 640 360">
  <defs>
    <radialGradient id="bg2" cx="30%" cy="50%" r="80%">
      <stop offset="0%" stop-color="#001a2e"/>
      <stop offset="100%" stop-color="#000508"/>
    </radialGradient>
    <linearGradient id="wave-grad" x1="0%" y1="0%" x2="100%" y2="0%">
      <stop offset="0%"   stop-color="#00e5ff" stop-opacity="0"/>
      <stop offset="20%"  stop-color="#00e5ff" stop-opacity="0.7"/>
      <stop offset="50%"  stop-color="#00b8d9" stop-opacity="1"/>
      <stop offset="80%"  stop-color="#00e5ff" stop-opacity="0.7"/>
      <stop offset="100%" stop-color="#00e5ff" stop-opacity="0"/>
    </linearGradient>
    <filter id="cyan-glow">
      <feGaussianBlur stdDeviation="7" result="blur"/>
      <feMerge><feMergeNode in="blur"/><feMergeNode in="SourceGraphic"/></feMerge>
    </filter>
    <filter id="soft-glow">
      <feGaussianBlur stdDeviation="3" result="blur"/>
      <feMerge><feMergeNode in="blur"/><feMergeNode in="SourceGraphic"/></feMerge>
    </filter>
    <clipPath id="clip">
      <rect width="640" height="360"/>
    </clipPath>
  </defs>

  <rect width="640" height="360" fill="url(#bg2)"/>

  <!-- Tight horizontal scanlines -->
  <g opacity="0.06" clip-path="url(#clip)">
    <rect x="0" y="0"   width="640" height="1" fill="#00e5ff"/>
    <rect x="0" y="4"   width="640" height="1" fill="#00e5ff"/>
    <rect x="0" y="8"   width="640" height="1" fill="#00e5ff"/>
    <rect x="0" y="12"  width="640" height="1" fill="#00e5ff"/>
    <rect x="0" y="16"  width="640" height="1" fill="#00e5ff"/>
    <rect x="0" y="20"  width="640" height="1" fill="#00e5ff"/>
    <rect x="0" y="24"  width="640" height="1" fill="#00e5ff"/>
    <rect x="0" y="28"  width="640" height="1" fill="#00e5ff"/>
    <rect x="0" y="32"  width="640" height="1" fill="#00e5ff"/>
    <rect x="0" y="36"  width="640" height="1" fill="#00e5ff"/>
    <rect x="0" y="40"  width="640" height="1" fill="#00e5ff"/>
    <rect x="0" y="44"  width="640" height="1" fill="#00e5ff"/>
    <rect x="0" y="48"  width="640" height="1" fill="#00e5ff"/>
    <rect x="0" y="52"  width="640" height="1" fill="#00e5ff"/>
    <rect x="0" y="56"  width="640" height="1" fill="#00e5ff"/>
    <rect x="0" y="60"  width="640" height="1" fill="#00e5ff"/>
    <rect x="0" y="64"  width="640" height="1" fill="#00e5ff"/>
    <rect x="0" y="68"  width="640" height="1" fill="#00e5ff"/>
    <rect x="0" y="72"  width="640" height="1" fill="#00e5ff"/>
    <rect x="0" y="76"  width="640" height="1" fill="#00e5ff"/>
    <rect x="0" y="80"  width="640" height="1" fill="#00e5ff"/>
    <rect x="0" y="84"  width="640" height="1" fill="#00e5ff"/>
    <rect x="0" y="88"  width="640" height="1" fill="#00e5ff"/>
    <rect x="0" y="92"  width="640" height="1" fill="#00e5ff"/>
    <rect x="0" y="96"  width="640" height="1" fill="#00e5ff"/>
    <rect x="0" y="100" width="640" height="1" fill="#00e5ff"/>
    <rect x="0" y="104" width="640" height="1" fill="#00e5ff"/>
    <rect x="0" y="108" width="640" height="1" fill="#00e5ff"/>
    <rect x="0" y="112" width="640" height="1" fill="#00e5ff"/>
    <rect x="0" y="116" width="640" height="1" fill="#00e5ff"/>
    <rect x="0" y="120" width="640" height="1" fill="#00e5ff"/>
    <rect x="0" y="124" width="640" height="1" fill="#00e5ff"/>
    <rect x="0" y="128" width="640" height="1" fill="#00e5ff"/>
    <rect x="0" y="132" width="640" height="1" fill="#00e5ff"/>
    <rect x="0" y="136" width="640" height="1" fill="#00e5ff"/>
    <rect x="0" y="140" width="640" height="1" fill="#00e5ff"/>
    <rect x="0" y="144" width="640" height="1" fill="#00e5ff"/>
    <rect x="0" y="148" width="640" height="1" fill="#00e5ff"/>
    <rect x="0" y="152" width="640" height="1" fill="#00e5ff"/>
    <rect x="0" y="156" width="640" height="1" fill="#00e5ff"/>
    <rect x="0" y="160" width="640" height="1" fill="#00e5ff"/>
    <rect x="0" y="164" width="640" height="1" fill="#00e5ff"/>
    <rect x="0" y="168" width="640" height="1" fill="#00e5ff"/>
    <rect x="0" y="172" width="640" height="1" fill="#00e5ff"/>
    <rect x="0" y="176" width="640" height="1" fill="#00e5ff"/>
    <rect x="0" y="180" width="640" height="1" fill="#00e5ff"/>
    <rect x="0" y="184" width="640" height="1" fill="#00e5ff"/>
    <rect x="0" y="188" width="640" height="1" fill="#00e5ff"/>
    <rect x="0" y="192" width="640" height="1" fill="#00e5ff"/>
    <rect x="0" y="196" width="640" height="1" fill="#00e5ff"/>
    <rect x="0" y="200" width="640" height="1" fill="#00e5ff"/>
    <rect x="0" y="204" width="640" height="1" fill="#00e5ff"/>
    <rect x="0" y="208" width="640" height="1" fill="#00e5ff"/>
    <rect x="0" y="212" width="640" height="1" fill="#00e5ff"/>
    <rect x="0" y="216" width="640" height="1" fill="#00e5ff"/>
    <rect x="0" y="220" width="640" height="1" fill="#00e5ff"/>
    <rect x="0" y="224" width="640" height="1" fill="#00e5ff"/>
    <rect x="0" y="228" width="640" height="1" fill="#00e5ff"/>
    <rect x="0" y="232" width="640" height="1" fill="#00e5ff"/>
    <rect x="0" y="236" width="640" height="1" fill="#00e5ff"/>
    <rect x="0" y="240" width="640" height="1" fill="#00e5ff"/>
    <rect x="0" y="244" width="640" height="1" fill="#00e5ff"/>
    <rect x="0" y="248" width="640" height="1" fill="#00e5ff"/>
    <rect x="0" y="252" width="640" height="1" fill="#00e5ff"/>
    <rect x="0" y="256" width="640" height="1" fill="#00e5ff"/>
    <rect x="0" y="260" width="640" height="1" fill="#00e5ff"/>
    <rect x="0" y="264" width="640" height="1" fill="#00e5ff"/>
    <rect x="0" y="268" width="640" height="1" fill="#00e5ff"/>
    <rect x="0" y="272" width="640" height="1" fill="#00e5ff"/>
    <rect x="0" y="276" width="640" height="1" fill="#00e5ff"/>
    <rect x="0" y="280" width="640" height="1" fill="#00e5ff"/>
    <rect x="0" y="284" width="640" height="1" fill="#00e5ff"/>
    <rect x="0" y="288" width="640" height="1" fill="#00e5ff"/>
    <rect x="0" y="292" width="640" height="1" fill="#00e5ff"/>
    <rect x="0" y="296" width="640" height="1" fill="#00e5ff"/>
    <rect x="0" y="300" width="640" height="1" fill="#00e5ff"/>
    <rect x="0" y="304" width="640" height="1" fill="#00e5ff"/>
    <rect x="0" y="308" width="640" height="1" fill="#00e5ff"/>
    <rect x="0" y="312" width="640" height="1" fill="#00e5ff"/>
    <rect x="0" y="316" width="640" height="1" fill="#00e5ff"/>
    <rect x="0" y="320" width="640" height="1" fill="#00e5ff"/>
    <rect x="0" y="324" width="640" height="1" fill="#00e5ff"/>
    <rect x="0" y="328" width="640" height="1" fill="#00e5ff"/>
    <rect x="0" y="332" width="640" height="1" fill="#00e5ff"/>
    <rect x="0" y="336" width="640" height="1" fill="#00e5ff"/>
    <rect x="0" y="340" width="640" height="1" fill="#00e5ff"/>
    <rect x="0" y="344" width="640" height="1" fill="#00e5ff"/>
    <rect x="0" y="348" width="640" height="1" fill="#00e5ff"/>
    <rect x="0" y="352" width="640" height="1" fill="#00e5ff"/>
    <rect x="0" y="356" width="640" height="1" fill="#00e5ff"/>
  </g>

  <!-- Signal waveform — oscilloscope style -->
  <!-- Glow layer -->
  <polyline
    points="0,180 60,180 90,180 110,120 130,240 150,180 200,180 220,180 240,100 260,260 280,180 340,180 360,180 380,130 400,230 420,180 480,180 500,180 520,110 540,250 560,180 640,180"
    fill="none" stroke="#00e5ff" stroke-width="10" stroke-linejoin="round" stroke-linecap="round"
    opacity="0.25" filter="url(#cyan-glow)"/>
  <!-- Core line -->
  <polyline
    points="0,180 60,180 90,180 110,120 130,240 150,180 200,180 220,180 240,100 260,260 280,180 340,180 360,180 380,130 400,230 420,180 480,180 500,180 520,110 540,250 560,180 640,180"
    fill="none" stroke="#00e5ff" stroke-width="2.5" stroke-linejoin="round" stroke-linecap="round"
    opacity="0.95"/>

  <!-- LF badge top-left -->
  <rect x="24" y="24" width="58" height="44" rx="6" fill="none" stroke="#00b8d9" stroke-width="1.5" opacity="0.7"/>
  <text x="53" y="53"
    font-family="'Courier New', Courier, monospace"
    font-size="22" font-weight="bold"
    fill="#00e5ff" text-anchor="middle"
    filter="url(#soft-glow)" opacity="0.9">LF</text>

  <!-- Wordmark bottom -->
  <text x="320" y="338"
    font-family="'Courier New', Courier, monospace"
    font-size="16" font-weight="bold"
    fill="#00b8d9" text-anchor="middle"
    letter-spacing="8" opacity="0.7">LASERFEED</text>

  <!-- Frequency label -->
  <text x="616" y="342"
    font-family="'Courier New', Courier, monospace"
    font-size="10" fill="#00e5ff"
    text-anchor="end" opacity="0.4">SIG·01</text>
</svg>
